<?xml version="1.0" encoding="utf-8"?>
<svg width="820" height="350" viewBox="0 0 820 350" xmlns="http://www.w3.org/2000/svg" xmlns:xlink="http://www.w3.org/1999/xlink">
  <defs>
    <linearGradient id="bg" x1="0%" y1="0%" x2="100%" y2="100%">
      <stop offset="0%"   style="stop-color:#040410"/>
      <stop offset="100%" style="stop-color:#08081A"/>
    </linearGradient>
  <symbol id="icon_python" viewBox="0 0 48 48">
    <g transform="translate(0, 0)">
          <svg width="256" height="256" fill="none" viewBox="0 0 256 256"><rect width="256" height="256" fill="#242938" rx="60" /><path fill="url(#paint0_linear_2_47)" d="M127.279 29C76.5066 29 79.6772 51.018 79.6772 51.018L79.7338 73.8284H128.185V80.6772H60.4893C60.4893 80.6772 28 76.9926 28 128.222C28 179.452 56.3573 177.636 56.3573 177.636H73.2812V153.863C73.2812 153.863 72.369 125.506 101.186 125.506H149.24C149.24 125.506 176.239 125.942 176.239 99.4123V55.5461C176.239 55.5461 180.338 29 127.279 29ZM100.563 44.339C105.384 44.339 109.28 48.2351 109.28 53.0556C109.28 57.8761 105.384 61.7723 100.563 61.7723C95.7426 61.7723 91.8465 57.8761 91.8465 53.0556C91.8465 48.2351 95.7426 44.339 100.563 44.339Z" /><path fill="url(#paint1_linear_2_47)" d="M128.721 227.958C179.493 227.958 176.323 205.941 176.323 205.941L176.266 183.13H127.815V176.281H195.511C195.511 176.281 228 179.966 228 128.736C228 77.5062 199.643 79.323 199.643 79.323H182.719V103.096C182.719 103.096 183.631 131.453 154.814 131.453H106.76C106.76 131.453 79.7607 131.016 79.7607 157.546V201.412C79.7607 201.412 75.6615 227.958 128.721 227.958ZM155.437 212.619C150.616 212.619 146.72 208.723 146.72 203.903C146.72 199.082 150.616 195.186 155.437 195.186C160.257 195.186 164.154 199.082 164.154 203.903C164.154 208.723 160.257 212.619 155.437 212.619Z" /><defs><linearGradient id="paint0_linear_2_47" x1="47.22" x2="146.333" y1="46.896" y2="145.02" gradientUnits="userSpaceOnUse"><stop stop-color="#387EB8" /><stop offset="1" stop-color="#366994" /></linearGradient><linearGradient id="paint1_linear_2_47" x1="108.056" x2="214.492" y1="109.905" y2="210.522" gradientUnits="userSpaceOnUse"><stop stop-color="#FFE052" /><stop offset="1" stop-color="#FFC331" /></linearGradient></defs></svg>
        </g>
        
  
  </symbol>
  <symbol id="icon_tensorflow" viewBox="0 0 48 48">
    <g transform="translate(0, 0)">
          <svg width="256" height="256" viewBox="0 0 256 256" fill="none">
<rect width="256" height="256" rx="60" fill="#242938" />
<path d="M124.228 229L90.623 208.89V90.31L40 120.459L40.123 75.545L124.228 26V229ZM131.784 26V229L165.393 208.89V151.781L190.763 166.895L190.612 127.833L165.393 112.988V90.31L216 120.459L215.878 75.545L131.784 26Z" fill="#FF6F00" />
</svg>

        </g>
        
  
  </symbol>
  <symbol id="icon_pytorch" viewBox="0 0 48 48">
    <g transform="translate(0, 0)">
          <svg width="256" height="256" viewBox="0 0 256 256" fill="none">
<rect width="256" height="256" rx="60" fill="#242938" />
<path d="M180.975 90.4153L167.567 103.824C189.508 125.765 189.508 161.115 167.567 182.65C145.625 204.591 110.275 204.591 88.7404 182.65C66.7991 160.709 66.7991 125.359 88.7404 103.824L123.481 69.0835L128.357 64.2077V38L75.9413 90.4153C46.6862 119.67 46.6862 166.804 75.9413 196.059C105.196 225.314 152.33 225.314 180.975 196.059C210.23 166.6 210.23 119.67 180.975 90.4153Z" fill="#EE4C2C" />
<path d="M154.77 87.1705C160.156 87.1705 164.522 82.8045 164.522 77.4188C164.522 72.0331 160.156 67.667 154.77 67.667C149.385 67.667 145.019 72.0331 145.019 77.4188C145.019 82.8045 149.385 87.1705 154.77 87.1705Z" fill="#EE4C2C" />
</svg>

        </g>
        
  
  </symbol>
  <symbol id="icon_sklearn" viewBox="0 0 48 48">
    <g transform="translate(0, 0)">
          <svg width="256" height="256" viewBox="0 0 256 256" fill="none">
<rect width="256" height="256" rx="60" fill="#242938" />
<g clip-path="url(#clip0_983_172)">
<path d="M181.405 160.654C205.831 136.23 209.891 100.69 190.472 81.2731C171.056 61.8579 135.518 65.9168 111.094 90.3399C86.6691 114.764 93.7346 161.426 102.028 169.721C108.73 176.423 156.982 185.078 181.405 160.654Z" fill="#F89939" />
<path d="M81.1816 125.361C67.0116 111.192 46.3899 108.833 35.1213 120.1C23.8556 131.367 26.211 151.991 40.3838 166.159C54.5567 180.333 81.6323 176.234 86.4412 171.42C90.3327 167.535 95.3558 139.533 81.1816 125.361Z" fill="#3499CD" />
<path d="M130.073 154.668C127.57 156.972 125.374 158.672 123.487 159.765C121.599 160.861 119.799 161.409 118.086 161.409C116.116 161.409 114.527 160.645 113.321 159.117C112.114 157.587 111.513 155.536 111.513 152.956C111.513 149.089 112.351 144.448 114.027 139.036C115.7 133.62 117.737 128.629 120.13 124.063L127.147 121.466C127.367 121.392 127.534 121.354 127.645 121.354C128.177 121.354 128.617 121.747 128.955 122.528C129.296 123.313 129.467 124.367 129.467 125.692C129.467 129.449 128.603 133.086 126.87 136.603C125.137 140.122 122.432 143.877 118.749 147.873C118.601 149.789 118.528 151.104 118.528 151.823C118.528 153.427 118.822 154.695 119.411 155.635C120.001 156.576 120.783 157.043 121.759 157.043C122.755 157.043 123.813 156.687 124.937 155.969C126.058 155.249 127.771 153.759 130.073 151.492V154.668H130.073ZM119.495 143.869C121.833 141.269 123.732 138.354 125.186 135.128C126.64 131.9 127.366 129.125 127.366 126.799C127.366 126.121 127.266 125.57 127.064 125.156C126.862 124.741 126.602 124.533 126.29 124.533C125.611 124.533 124.62 126.229 123.321 129.622C122.022 133.015 120.747 137.764 119.495 143.869Z" fill="#010101" />
<path d="M150.737 154.667C148.399 156.972 146.3 158.672 144.439 159.765C142.579 160.861 140.528 161.408 138.28 161.408C135.775 161.408 133.754 160.607 132.214 159.007C130.678 157.402 129.91 155.295 129.91 152.68C129.91 148.777 131.263 145.245 133.973 142.087C136.677 138.927 139.68 137.349 142.976 137.349C144.689 137.349 146.059 137.792 147.092 138.676C148.123 139.561 148.639 140.719 148.639 142.156C148.639 145.969 144.588 149.061 136.485 151.437C137.221 155.026 139.145 156.824 142.258 156.824C143.474 156.824 144.633 156.497 145.737 155.845C146.844 155.19 148.509 153.738 150.738 151.493L150.737 154.667ZM136.263 149.558C140.976 148.231 143.334 145.784 143.334 142.211C143.334 140.443 142.688 139.56 141.401 139.56C140.185 139.56 139.026 140.484 137.922 142.336C136.814 144.186 136.263 146.592 136.263 149.558Z" fill="#010101" />
<path d="M180.238 154.668C177.291 157.466 175.182 159.292 173.913 160.14C172.642 160.987 171.427 161.409 170.266 161.409C167.356 161.409 165.985 158.841 166.15 153.703C164.309 156.335 162.609 158.278 161.053 159.533C159.498 160.785 157.892 161.409 156.232 161.409C154.614 161.409 153.238 160.651 152.103 159.132C150.969 157.612 150.406 155.749 150.406 153.537C150.406 150.776 151.164 148.142 152.682 145.636C154.203 143.131 156.15 141.108 158.525 139.561C160.9 138.014 163.001 137.239 164.822 137.239C167.125 137.239 168.737 138.299 169.658 140.415L175.303 137.296H176.853L174.414 145.388C173.162 149.459 172.534 152.249 172.534 153.759C172.534 155.342 173.094 156.134 174.219 156.134C174.934 156.134 175.726 155.752 176.592 154.987C177.458 154.222 178.671 153.057 180.236 151.492V154.668H180.238ZM160.018 156.189C161.859 156.189 163.594 154.619 165.227 151.48C166.857 148.339 167.671 145.441 167.671 142.79C167.671 141.76 167.439 140.953 166.981 140.374C166.519 139.792 165.902 139.504 165.13 139.504C163.288 139.504 161.541 141.069 159.896 144.2C158.248 147.332 157.422 150.213 157.422 152.844C157.422 153.84 157.667 154.646 158.155 155.263C158.642 155.881 159.261 156.189 160.018 156.189Z" fill="#010101" />
<path d="M200.873 154.668C196.25 159.197 192.686 161.464 190.182 161.464C189.058 161.464 188.109 160.99 187.337 160.044C186.566 159.095 186.177 157.92 186.177 156.52C186.177 153.923 187.569 150.444 190.349 146.079C188.985 146.779 187.495 147.265 185.874 147.542C184.677 149.752 182.797 152.128 180.239 154.667H179.605V152.184C181.04 150.692 182.339 149.089 183.499 147.376C181.913 146.676 181.123 145.635 181.123 144.257C181.123 142.837 181.604 141.323 182.574 139.709C183.54 138.1 184.87 137.295 186.566 137.295C188.002 137.295 188.719 138.029 188.719 139.503C188.719 140.664 188.305 142.32 187.475 144.476C190.531 144.143 193.202 141.807 195.487 137.459L197.999 137.348L195.43 144.42C194.363 147.403 193.672 149.435 193.36 150.511C193.048 151.587 192.89 152.542 192.89 153.37C192.89 154.144 193.07 154.763 193.428 155.22C193.787 155.684 194.271 155.912 194.879 155.912C195.541 155.912 196.178 155.685 196.785 155.237C197.392 154.782 198.755 153.535 200.874 151.492V154.668H200.873Z" fill="#010101" />
<path d="M228 154.668C223.747 159.164 220.098 161.409 217.061 161.409C215.827 161.409 214.833 160.977 214.078 160.111C213.321 159.246 212.944 158.086 212.944 156.632C212.944 154.661 213.755 151.65 215.376 147.6C216.241 145.426 216.675 144.043 216.675 143.456C216.675 142.866 216.443 142.571 215.985 142.571C215.728 142.571 215.385 142.701 214.962 142.957C214.574 143.215 214.123 143.577 213.607 144.036C213.148 144.459 212.631 144.974 212.06 145.58C211.562 146.1 211.028 146.689 210.46 147.349L208.911 149.146C208.231 149.974 207.807 150.848 207.642 151.769C207.364 153.334 207.181 154.772 207.088 156.081C207.031 157.055 207.005 158.37 207.005 160.031L200.9 161.465C200.699 158.979 200.596 157.128 200.596 155.914C200.596 152.949 200.941 150.14 201.633 147.489C202.323 144.835 203.431 141.854 204.961 138.538L211.7 137.24C210.283 141.053 209.353 144.053 208.911 146.244C211.931 142.874 214.326 140.542 216.1 139.242C217.872 137.943 219.45 137.296 220.829 137.296C221.766 137.296 222.549 137.65 223.173 138.357C223.8 139.066 224.111 139.955 224.111 141.018C224.111 142.784 223.32 145.694 221.738 149.747C220.65 152.527 220.107 154.33 220.107 155.163C220.107 156.272 220.559 156.826 221.463 156.826C222.81 156.826 224.991 155.048 228 151.494V154.668Z" fill="#010101" />
<path d="M140.525 123.723C140.568 124.211 140.69 124.585 140.89 124.845C141.259 125.316 141.898 125.552 142.808 125.552C143.35 125.552 143.827 125.435 144.239 125.202C144.651 124.964 144.856 124.598 144.856 124.105C144.856 123.731 144.691 123.447 144.361 123.252C144.149 123.133 143.732 122.995 143.109 122.837L141.947 122.545C141.205 122.361 140.657 122.155 140.305 121.927C139.677 121.532 139.362 120.984 139.362 120.285C139.362 119.462 139.658 118.795 140.248 118.286C140.844 117.777 141.643 117.522 142.646 117.522C143.957 117.522 144.902 117.907 145.482 118.676C145.845 119.164 146.021 119.689 146.011 120.253H144.629C144.602 119.922 144.485 119.622 144.279 119.351C143.943 118.966 143.361 118.774 142.532 118.774C141.979 118.774 141.559 118.879 141.272 119.091C140.991 119.302 140.85 119.581 140.85 119.928C140.85 120.307 141.037 120.611 141.41 120.838C141.627 120.974 141.947 121.093 142.369 121.196L143.337 121.431C144.388 121.686 145.092 121.933 145.45 122.171C146.019 122.545 146.303 123.133 146.303 123.935C146.303 124.709 146.008 125.379 145.417 125.942C144.832 126.506 143.938 126.787 142.735 126.787C141.44 126.787 140.522 126.495 139.98 125.91C139.444 125.319 139.156 124.59 139.119 123.723H140.525ZM151.334 117.498C152.315 117.498 153.111 117.736 153.723 118.213C154.341 118.69 154.712 119.511 154.837 120.676H153.414C153.328 120.139 153.13 119.695 152.821 119.343C152.512 118.985 152.017 118.806 151.334 118.806C150.402 118.806 149.736 119.261 149.335 120.172C149.074 120.762 148.944 121.491 148.944 122.358C148.944 123.23 149.129 123.964 149.497 124.56C149.866 125.156 150.445 125.454 151.236 125.454C151.843 125.454 152.323 125.27 152.675 124.902C153.032 124.528 153.279 124.019 153.414 123.374H154.837C154.674 124.528 154.268 125.373 153.618 125.91C152.967 126.441 152.136 126.706 151.123 126.706C149.985 126.706 149.077 126.292 148.4 125.463C147.723 124.628 147.384 123.588 147.384 122.342C147.384 120.814 147.755 119.624 148.497 118.774C149.24 117.923 150.185 117.498 151.334 117.498ZM156.3 117.79H157.787V126.454H156.3V117.79ZM156.3 114.515H157.787V116.173H156.3V114.515ZM159.973 114.515H161.379V121.448L165.134 117.75H167.003L163.671 121.009L167.19 126.454H165.321L162.606 122.065L161.379 123.187V126.454H159.973V114.515ZM168.328 117.79H169.815V126.454H168.328V117.79ZM168.328 114.515H169.815V116.173H168.328V114.515ZM172.327 115.32H173.806V117.75H175.196V118.944H173.806V124.625C173.806 124.929 173.909 125.132 174.115 125.235C174.228 125.295 174.418 125.324 174.684 125.324C174.754 125.324 174.83 125.324 174.911 125.324C174.992 125.319 175.087 125.311 175.196 125.3V126.454C175.028 126.503 174.852 126.538 174.667 126.56C174.489 126.581 174.294 126.592 174.082 126.592C173.4 126.592 172.936 126.419 172.692 126.072C172.449 125.72 172.327 125.265 172.327 124.707V118.944H171.148V117.75H172.327V115.32Z" fill="white" />
</g>
<defs>
<clipPath id="clip0_983_172">
<rect width="200" height="107.86" fill="white" transform="translate(28 69)" />
</clipPath>
</defs>
</svg>

        </g>
        
  
  </symbol>
  <symbol id="icon_pandas" viewBox="0 0 48 48">
    <path fill="#130754" d="M46.236 7.567h13.99v29.047h-13.99Zm0 59.668h13.99V96.28h-13.99Z" /><path fill="#ffca00" d="M46.236 45.092h13.99v13.705h-13.99Z" /><path fill="#130754" d="M23.763 31.446h13.989V128h-13.99ZM68.245 91.2h13.99v29.046h-13.99Zm0-59.72h13.99v29.047h-13.99Z" /><path fill="#e70488" d="M68.245 69.011h13.99v13.705h-13.99Z" /><path fill="#130754" d="M90.248 0h13.99v96.554h-13.99Z" />
  </symbol>
  <symbol id="icon_numpy" viewBox="0 0 48 48">
    <path fill="#4DABCF" d="m55.012 26.006-21.38-10.789L10.154 26.93l21.969 11.027Zm9.808 4.951L87.241 42.28 63.982 53.955l-22-11.043Zm29.948-15.581 23.037 11.552L97.2 37.272 74.735 25.938ZM84.853 10.4 64.113 0 43.598 10.24 64.97 21.014ZM68.64 99.702V128l25.122-12.537-.023-28.31ZM93.727 77.27l-.028-28.012-25.06 12.458V89.74Zm30.158-5.246v28.41l-21.43 10.69-.017-28.279zm0-9.935V34.25l-21.47 10.673.016 28.068z" /><path fill="#4c75cf" d="m59.77 61.716-16.918-8.512V89.97s-20.7-44.033-22.612-47.99c-.246-.513-1.263-1.07-1.522-1.209-3.731-1.947-14.603-7.45-14.603-7.45v64.977l15.04 8.063V72.382s20.478 39.346 20.689 39.78c.214.429 2.257 4.57 4.459 6.028 2.92 1.939 15.458 9.477 15.458 9.477z" />
  </symbol>
  <symbol id="icon_fastapi" viewBox="0 0 48 48">
    <g transform="translate(0, 0)">
          <svg width="256" height="256" viewBox="0 0 256 256" fill="none">
<rect width="256" height="256" rx="60" fill="#049789" />
<path d="M127.5 41C79.743 41 41 79.743 41 127.5C41 175.257 79.743 214 127.5 214C175.257 214 214 175.257 214 127.5C214 79.743 175.257 41 127.5 41ZM122.993 196.839V142.581H92.8306L136.167 58.1615V112.419H165.203L122.993 196.839Z" fill="white" />
</svg>

        </g>
        
  
  </symbol>
  <symbol id="icon_postgres" viewBox="0 0 48 48">
    <g transform="translate(0, 0)">
          <svg width="256" height="256" fill="none" viewBox="0 0 256 256"><rect width="256" height="256" fill="#242938" rx="60" /><path fill="#336791" d="M203.48 148.688C183.16 152.878 181.684 145.995 181.684 145.995C203.15 114.143 212.129 73.7134 204.38 63.8204C183.259 36.8204 146.689 49.5962 146.077 49.9266L145.88 49.9618C141.414 49.0656 136.873 48.5924 132.317 48.5485C123.12 48.4079 116.145 50.9602 110.844 54.9751C110.844 54.9751 45.6078 28.1016 48.6453 88.7743C49.2922 101.684 67.1375 186.509 88.4422 160.845C96.2891 151.409 103.812 143.484 103.812 143.484C107.539 145.966 112.018 147.232 116.708 146.775L117.073 146.466C116.966 147.681 117.016 148.905 117.221 150.108C111.737 156.239 113.354 157.315 102.385 159.572C91.2898 161.857 97.8148 165.928 102.062 166.997C107.223 168.291 119.162 170.119 127.234 158.827L126.91 160.113C129.062 161.836 130.566 171.314 130.313 179.906C130.06 188.499 129.891 194.391 131.579 199.003C133.266 203.616 134.954 213.98 149.368 210.956C161.413 208.376 167.649 201.675 168.528 190.524C169.147 182.592 170.539 183.759 170.638 176.672L171.763 173.311C173.049 162.553 171.973 159.087 179.391 160.704L181.198 160.866C186.662 161.112 193.813 159.987 198.003 158.039C207.038 153.849 212.396 146.845 203.487 148.688H203.48Z" /><path stroke="#fff" stroke-linecap="round" stroke-linejoin="round" stroke-width="5.034" d="M146.07 48.5961C143.82 49.2993 182.38 34.4985 204.303 62.504C212.038 72.3969 203.073 112.827 181.606 144.678M128.098 153.784C127.536 173.795 128.239 193.946 130.194 198.784C132.148 203.621 136.346 213.198 150.767 210.118C162.812 207.538 167.199 202.538 169.098 191.506L173.548 156.231L128.098 153.784ZM110.816 53.4688C110.816 53.4688 45.5375 26.7782 48.575 87.4508C49.2219 100.36 67.0672 185.185 88.3719 159.521C96.1484 150.148 103.18 142.815 103.18 142.815L110.816 53.4688Z" /><path stroke="#fff" stroke-linecap="round" stroke-linejoin="bevel" stroke-width="5.034" d="M181.613 144.664C181.613 144.664 183.02 151.555 203.41 147.35C212.319 145.508 206.954 152.511 197.926 156.702C190.515 160.147 173.893 161.026 173.619 156.28C172.916 144.01 182.366 147.737 181.684 144.664C181.065 141.894 176.832 139.18 174.048 132.402C171.608 126.495 140.579 81.1438 182.654 87.8727C184.201 87.5563 171.685 47.7946 132.31 47.2181C92.9352 46.6415 94.1797 95.6282 94.1797 95.6282" /><path stroke="#fff" stroke-linejoin="round" stroke-width="5.034" d="M117.08 148.869C111.596 155 113.213 156.076 102.245 158.333C91.1492 160.618 97.6742 164.689 101.921 165.758C107.082 167.052 119.021 168.88 127.093 157.58C129.554 154.135 127.079 148.651 123.704 147.259C122.073 146.584 119.893 145.74 117.095 148.876L117.08 148.869Z" /><path stroke="#fff" stroke-linecap="round" stroke-linejoin="round" stroke-width="5.034" d="M116.722 148.763C116.159 145.156 117.903 140.874 119.766 135.854C122.565 128.331 129.02 120.807 123.859 96.9219C120.013 79.1329 94.1867 93.2165 94.1867 95.6282C94.1867 98.0399 95.3539 107.863 93.7648 119.288C91.6766 134.209 103.257 146.823 116.588 145.536" /><path fill="#fff" stroke="#fff" stroke-width="1.68" d="M110.577 95.2695C110.457 96.0922 112.088 98.293 114.205 98.5883C116.321 98.8836 118.128 97.168 118.248 96.3383C118.367 95.5086 116.736 94.6086 114.62 94.3133C112.503 94.018 110.682 94.4539 110.577 95.2695V95.2695Z" /><path fill="#fff" stroke="#fff" stroke-width=".837" d="M175.011 93.5891C175.123 94.4118 173.499 96.6125 171.383 96.9079C169.266 97.2032 167.445 95.4875 167.34 94.6579C167.234 93.8282 168.852 92.9282 170.968 92.6329C173.084 92.3375 174.905 92.7735 175.011 93.5891Z" /><path stroke="#fff" stroke-linecap="round" stroke-linejoin="round" stroke-width="5.034" d="M182.577 87.8867C182.928 94.3555 181.184 98.75 180.959 105.634C180.636 115.632 185.727 127.079 178.055 138.54" /></svg>
        </g>
        
  
  </symbol>
  <symbol id="icon_mongodb" viewBox="0 0 48 48">
    <g transform="translate(0, 0)">
          <svg width="256" height="256" fill="none" viewBox="0 0 256 256"><rect width="256" height="256" fill="#023430" rx="60" /><path fill="#10AA50" d="M171.173 107.591C160.636 61.1097 138.676 48.7357 133.074 39.9886C130.764 36.1353 128.717 32.1299 126.949 28C126.653 32.1292 126.109 34.7307 122.599 37.862C115.552 44.1454 85.6217 68.5354 83.1028 121.348C80.756 170.59 119.303 200.953 124.395 204.092C128.311 206.019 133.08 204.133 135.407 202.364C153.988 189.612 179.376 155.614 171.193 107.591" /><path fill="#B8C4C2" d="M128.545 177.871C127.575 190.059 126.88 197.141 124.416 204.106C124.416 204.106 126.033 215.709 127.169 228H131.188C132.147 219.345 133.61 210.753 135.572 202.268C130.369 199.708 128.745 188.566 128.545 177.871Z" /><path fill="#12924F" d="M135.565 202.275C130.307 199.846 128.786 188.469 128.552 177.871C129.852 160.388 130.231 142.849 129.688 125.326C129.412 116.132 129.818 40.1676 127.423 29.0461C129.062 32.8129 130.949 36.4662 133.074 39.9818C138.676 48.7358 160.643 61.1097 171.173 107.591C179.376 155.532 154.126 189.44 135.565 202.275Z" /></svg>
        </g>
        
  
  </symbol>
  <symbol id="icon_streamlit" viewBox="0 0 48 48">
    <g transform="translate(0, 0)">
          undefined
        </g>
        
  
  </symbol>
  <symbol id="icon_git" viewBox="0 0 48 48">
    <g transform="translate(0, 0)">
          <svg width="256" height="256" fill="none" viewBox="0 0 256 256"><rect width="256" height="256" fill="#F03C2E" rx="60" /><g clip-path="url(#clip0_7_283)"><path fill="#fff" d="M224.225 119.094L136.906 31.775C135.711 30.5787 134.291 29.6298 132.729 28.9824C131.166 28.3349 129.491 28.0017 127.8 28.0017C126.109 28.0017 124.434 28.3349 122.871 28.9824C121.309 29.6298 119.889 30.5787 118.694 31.775L100.569 49.9L123.569 72.9C128.919 71.025 135.044 72.3062 139.306 76.5687C141.335 78.6014 142.752 81.1638 143.394 83.9632C144.036 86.7626 143.878 89.6862 142.937 92.4L165.106 114.569C170.469 112.719 176.656 113.912 180.937 118.206C182.361 119.63 183.49 121.32 184.26 123.18C185.03 125.04 185.426 127.033 185.426 129.046C185.425 131.059 185.029 133.052 184.258 134.912C183.487 136.771 182.358 138.461 180.934 139.884C179.511 141.308 177.821 142.436 175.961 143.206C174.101 143.977 172.108 144.373 170.095 144.372C168.082 144.372 166.088 143.975 164.229 143.205C162.369 142.434 160.679 141.305 159.256 139.881C154.756 135.381 153.644 128.756 155.919 123.212L135.244 102.537V156.944C136.745 157.686 138.116 158.666 139.306 159.844C140.729 161.267 141.858 162.956 142.629 164.816C143.399 166.675 143.795 168.668 143.795 170.681C143.795 172.694 143.399 174.687 142.629 176.546C141.858 178.406 140.729 180.096 139.306 181.519C137.883 182.942 136.193 184.071 134.334 184.841C132.474 185.611 130.481 186.008 128.469 186.008C126.456 186.008 124.463 185.611 122.604 184.841C120.744 184.071 119.054 182.942 117.631 181.519C116.206 180.096 115.076 178.407 114.305 176.548C113.533 174.688 113.136 172.694 113.136 170.681C113.136 168.668 113.533 166.675 114.305 164.815C115.076 162.955 116.206 161.266 117.631 159.844C119.112 158.369 120.756 157.25 122.65 156.5V101.587C120.825 100.837 119.112 99.7312 117.631 98.2437C115.479 96.0943 114.016 93.3526 113.428 90.3684C112.841 87.3841 113.155 84.2924 114.331 81.4875L91.6437 58.8125L31.7687 118.625C30.5716 119.821 29.6219 121.241 28.9739 122.804C28.3259 124.367 27.9924 126.042 27.9924 127.734C27.9924 129.426 28.3259 131.102 28.9739 132.665C29.6219 134.228 30.5716 135.648 31.7687 136.844L119.094 224.156C120.289 225.352 121.709 226.301 123.271 226.949C124.834 227.596 126.509 227.929 128.2 227.929C129.891 227.929 131.566 227.596 133.129 226.949C134.691 226.301 136.111 225.352 137.306 224.156L224.225 137.375C225.422 136.179 226.372 134.759 227.02 133.196C227.668 131.633 228.001 129.958 228.001 128.266C228.001 126.574 227.668 124.898 227.02 123.335C226.372 121.772 225.422 120.352 224.225 119.156" /></g><defs><clipPath id="clip0_7_283"><rect width="200" height="200" fill="#fff" transform="translate(28 28)" /></clipPath></defs></svg>
        </g>
        
  
  </symbol>
  <symbol id="icon_c" viewBox="0 0 48 48">
    <g transform="translate(0, 0)">
          <svg width="256" height="256" viewBox="0 0 256 256" fill="none">
<rect width="256" height="256" rx="60" fill="#394AAB" />
<path d="M134.001 33C169.144 33 199.828 52.0863 216.262 80.4561L216.102 80.183L174.753 103.991C166.607 90.1977 151.672 80.8892 134.54 80.6975L134.001 80.6945C107.875 80.6945 86.6945 101.874 86.6945 127.999C86.6945 136.543 88.9723 144.552 92.9335 151.469C101.088 165.704 116.416 175.306 134.001 175.306C151.693 175.306 167.109 165.582 175.222 151.195L175.025 151.54L216.311 175.458C200.057 203.588 169.794 222.615 135.059 222.994L134.001 223C98.746 223 67.9753 203.796 51.582 175.276C43.5791 161.353 39 145.212 39 127.999C39 75.5334 81.5323 33 134.001 33Z" fill="white" />
</svg>

        </g>
        
  
  </symbol>
  <symbol id="icon_cpp" viewBox="0 0 48 48">
    <g transform="translate(0, 0)">
          <svg width="256" height="256" fill="none" viewBox="0 0 256 256"><rect width="256" height="256" fill="#00599C" rx="60" /><path fill="#fff" d="M110.759 210.517C65.1254 210.517 28 173.392 28 127.759C28 82.1254 65.1254 45 110.759 45C140.204 45 167.667 60.8458 182.427 86.3533L146.611 107.079C139.224 94.3111 125.485 86.3793 110.759 86.3793C87.9416 86.3793 69.3793 104.942 69.3793 127.759C69.3793 150.575 87.9416 169.138 110.759 169.138C125.486 169.138 139.225 161.206 146.613 148.436L182.429 169.161C167.669 194.671 140.206 210.517 110.759 210.517Z" /><path fill="#fff" d="M193.517 123.161H184.321V113.965H175.127V123.161H165.931V132.356H175.127V141.552H184.321V132.356H193.517V123.161Z" /><path fill="#fff" d="M228 123.161H218.804V113.965H209.61V123.161H200.414V132.356H209.61V141.552H218.804V132.356H228V123.161Z" /></svg>
        </g>
        
  
  </symbol>
  <symbol id="icon_java" viewBox="0 0 48 48">
    <g transform="translate(0, 0)">
          <svg width="256" height="256" fill="none" viewBox="0 0 256 256"><rect width="256" height="256" fill="#242938" rx="60" /><path fill="#fff" d="M101.634 182.619C101.634 182.619 93.9548 187.293 106.979 188.63C122.707 190.634 131.023 190.299 148.386 186.962C148.386 186.962 153.06 189.971 159.406 192.306C120.331 209.002 70.9089 191.304 101.634 182.619ZM96.6252 160.914C96.6252 160.914 88.2753 167.26 101.299 168.593C118.327 170.262 131.69 170.597 154.732 165.926C154.732 165.926 157.741 169.267 162.747 170.936C115.664 184.961 62.8975 172.269 96.6252 160.917V160.914ZM188.795 198.984C188.795 198.984 194.471 203.658 182.449 207.334C160.073 214.012 88.6104 216.019 68.5735 207.334C61.564 204.325 74.9197 199.982 79.2587 199.319C83.6012 198.317 85.9366 198.317 85.9366 198.317C78.2569 192.973 34.8424 209.337 63.8959 214.046C143.709 227.073 209.499 208.37 188.792 199.018L188.795 198.984ZM105.307 138.203C105.307 138.203 68.9052 146.888 92.2793 149.89C102.298 151.223 122 150.892 140.368 149.555C155.396 148.221 170.458 145.548 170.458 145.548C170.458 145.548 165.113 147.886 161.441 150.222C124.342 159.915 53.2107 155.573 73.5827 145.554C90.9526 137.204 105.307 138.203 105.307 138.203V138.203ZM170.423 174.604C207.83 155.234 190.46 136.534 178.438 138.873C175.429 139.54 174.096 140.207 174.096 140.207C174.096 140.207 175.097 138.203 177.436 137.54C201.145 129.19 219.849 162.586 169.757 175.61C169.757 175.61 170.092 175.275 170.423 174.608V174.604ZM108.979 227.364C145.046 229.703 200.147 226.03 201.484 208.995C201.484 208.995 198.817 215.673 171.764 220.683C141.042 226.359 102.968 225.692 80.5957 222.016C80.5957 222.016 85.2698 226.023 108.982 227.36L108.979 227.364Z" /><path fill="#F58219" d="M147.685 28C147.685 28 168.389 49.0388 127.983 80.7594C95.5891 106.472 120.632 121.168 127.983 137.861C108.948 120.833 95.2609 105.802 104.606 91.7762C118.331 71.0828 156.062 61.0644 147.685 28ZM137 123.842C146.683 134.862 134.333 144.881 134.333 144.881C134.333 144.881 159.044 132.195 147.692 116.494C137.338 101.466 129.324 94.1184 172.738 69.0689C172.738 69.0689 104.278 86.0968 137.007 123.835L137 123.842Z" /></svg>
        </g>
        
  
  </symbol>
  </defs>

  <rect width="820" height="350" fill="url(#bg)" rx="12" ry="12"/>

  <line x1="80" y1="45" x2="740" y2="45" stroke="#9B5DE5" stroke-width="0.5" stroke-opacity="0.25"/>
  <line x1="80" y1="145" x2="740" y2="145" stroke="#9B5DE5" stroke-width="0.5" stroke-opacity="0.25"/>
  <line x1="80" y1="240" x2="740" y2="240" stroke="#9B5DE5" stroke-width="0.5" stroke-opacity="0.25"/>
  <text x="410" y="41" font-family="'Inter', 'Helvetica', sans-serif" font-size="11" text-anchor="middle" fill="#9B5DE5" letter-spacing="3" font-weight="600" text-transform="uppercase">AI &AMP; DATA SCIENCE</text>
  <text x="410" y="141" font-family="'Inter', 'Helvetica', sans-serif" font-size="11" text-anchor="middle" fill="#9B5DE5" letter-spacing="3" font-weight="600" text-transform="uppercase">BACKEND &AMP; DATABASES</text>
  <text x="410" y="236" font-family="'Inter', 'Helvetica', sans-serif" font-size="11" text-anchor="middle" fill="#9B5DE5" letter-spacing="3" font-weight="600" text-transform="uppercase">ADDITIONAL</text>
  <!-- Python -->
  <g>
    <animateTransform attributeName="transform" type="translate"
      values="0,0;4,5;0,0;-4,-5;0,0" additive="sum"
      dur="3.9s" begin="0.0s" repeatCount="indefinite"
      calcMode="spline" keySplines="0.45,0,0.55,1;0.45,0,0.55,1;0.45,0,0.55,1;0.45,0,0.55,1"/>
    <use href="#icon_python" x="195" y="60" width="50" height="50"/>
    <text x="220" y="124" font-family="'Inter', 'Helvetica', sans-serif"
          font-size="10" text-anchor="middle" fill="#8888aa" font-weight="500">Python</text>
  </g>
  <!-- TensorFlow -->
  <g>
    <animateTransform attributeName="transform" type="translate"
      values="0,0;-3,6;0,0;3,-6;0,0" additive="sum"
      dur="4.5s" begin="0.6s" repeatCount="indefinite"
      calcMode="spline" keySplines="0.45,0,0.55,1;0.45,0,0.55,1;0.45,0,0.55,1;0.45,0,0.55,1"/>
    <use href="#icon_tensorflow" x="271" y="60" width="50" height="50"/>
    <text x="296" y="124" font-family="'Inter', 'Helvetica', sans-serif"
          font-size="10" text-anchor="middle" fill="#8888aa" font-weight="500">TensorFlow</text>
  </g>
  <!-- PyTorch -->
  <g>
    <animateTransform attributeName="transform" type="translate"
      values="0,0;5,-4;0,0;-5,4;0,0" additive="sum"
      dur="4.1s" begin="1.2s" repeatCount="indefinite"
      calcMode="spline" keySplines="0.45,0,0.55,1;0.45,0,0.55,1;0.45,0,0.55,1;0.45,0,0.55,1"/>
    <use href="#icon_pytorch" x="347" y="60" width="50" height="50"/>
    <text x="372" y="124" font-family="'Inter', 'Helvetica', sans-serif"
          font-size="10" text-anchor="middle" fill="#8888aa" font-weight="500">PyTorch</text>
  </g>
  <!-- Sklearn -->
  <g>
    <animateTransform attributeName="transform" type="translate"
      values="0,0;-4,4;0,0;4,-4;0,0" additive="sum"
      dur="5.0s" begin="0.3s" repeatCount="indefinite"
      calcMode="spline" keySplines="0.45,0,0.55,1;0.45,0,0.55,1;0.45,0,0.55,1;0.45,0,0.55,1"/>
    <use href="#icon_sklearn" x="423" y="60" width="50" height="50"/>
    <text x="448" y="124" font-family="'Inter', 'Helvetica', sans-serif"
          font-size="10" text-anchor="middle" fill="#8888aa" font-weight="500">Sklearn</text>
  </g>
  <!-- Pandas -->
  <g>
    <animateTransform attributeName="transform" type="translate"
      values="0,0;3,5;0,0;-3,-5;0,0" additive="sum"
      dur="3.7s" begin="0.9s" repeatCount="indefinite"
      calcMode="spline" keySplines="0.45,0,0.55,1;0.45,0,0.55,1;0.45,0,0.55,1;0.45,0,0.55,1"/>
    <use href="#icon_pandas" x="499" y="60" width="50" height="50"/>
    <text x="524" y="124" font-family="'Inter', 'Helvetica', sans-serif"
          font-size="10" text-anchor="middle" fill="#8888aa" font-weight="500">Pandas</text>
  </g>
  <!-- NumPy -->
  <g>
    <animateTransform attributeName="transform" type="translate"
      values="0,0;-5,3;0,0;5,-3;0,0" additive="sum"
      dur="4.8s" begin="0.5s" repeatCount="indefinite"
      calcMode="spline" keySplines="0.45,0,0.55,1;0.45,0,0.55,1;0.45,0,0.55,1;0.45,0,0.55,1"/>
    <use href="#icon_numpy" x="575" y="60" width="50" height="50"/>
    <text x="600" y="124" font-family="'Inter', 'Helvetica', sans-serif"
          font-size="10" text-anchor="middle" fill="#8888aa" font-weight="500">NumPy</text>
  </g>
  <!-- FastAPI -->
  <g>
    <animateTransform attributeName="transform" type="translate"
      values="0,0;4,-5;0,0;-4,5;0,0" additive="sum"
      dur="4.2s" begin="1.1s" repeatCount="indefinite"
      calcMode="spline" keySplines="0.45,0,0.55,1;0.45,0,0.55,1;0.45,0,0.55,1;0.45,0,0.55,1"/>
    <use href="#icon_fastapi" x="233" y="160" width="50" height="50"/>
    <text x="258" y="224" font-family="'Inter', 'Helvetica', sans-serif"
          font-size="10" text-anchor="middle" fill="#8888aa" font-weight="500">FastAPI</text>
  </g>
  <!-- PostgreSQL -->
  <g>
    <animateTransform attributeName="transform" type="translate"
      values="0,0;-3,4;0,0;3,-4;0,0" additive="sum"
      dur="5.3s" begin="0.2s" repeatCount="indefinite"
      calcMode="spline" keySplines="0.45,0,0.55,1;0.45,0,0.55,1;0.45,0,0.55,1;0.45,0,0.55,1"/>
    <use href="#icon_postgres" x="309" y="160" width="50" height="50"/>
    <text x="334" y="224" font-family="'Inter', 'Helvetica', sans-serif"
          font-size="10" text-anchor="middle" fill="#8888aa" font-weight="500">PostgreSQL</text>
  </g>
  <!-- MongoDB -->
  <g>
    <animateTransform attributeName="transform" type="translate"
      values="0,0;5,3;0,0;-5,-3;0,0" additive="sum"
      dur="3.6s" begin="0.8s" repeatCount="indefinite"
      calcMode="spline" keySplines="0.45,0,0.55,1;0.45,0,0.55,1;0.45,0,0.55,1;0.45,0,0.55,1"/>
    <use href="#icon_mongodb" x="385" y="160" width="50" height="50"/>
    <text x="410" y="224" font-family="'Inter', 'Helvetica', sans-serif"
          font-size="10" text-anchor="middle" fill="#8888aa" font-weight="500">MongoDB</text>
  </g>
  <!-- Streamlit -->
  <g>
    <animateTransform attributeName="transform" type="translate"
      values="0,0;-4,5;0,0;4,-5;0,0" additive="sum"
      dur="4.9s" begin="0.4s" repeatCount="indefinite"
      calcMode="spline" keySplines="0.45,0,0.55,1;0.45,0,0.55,1;0.45,0,0.55,1;0.45,0,0.55,1"/>
    <use href="#icon_streamlit" x="461" y="160" width="50" height="50"/>
    <text x="486" y="224" font-family="'Inter', 'Helvetica', sans-serif"
          font-size="10" text-anchor="middle" fill="#8888aa" font-weight="500">Streamlit</text>
  </g>
  <!-- Git -->
  <g>
    <animateTransform attributeName="transform" type="translate"
      values="0,0;3,-4;0,0;-3,4;0,0" additive="sum"
      dur="4.0s" begin="1.0s" repeatCount="indefinite"
      calcMode="spline" keySplines="0.45,0,0.55,1;0.45,0,0.55,1;0.45,0,0.55,1;0.45,0,0.55,1"/>
    <use href="#icon_git" x="537" y="160" width="50" height="50"/>
    <text x="562" y="224" font-family="'Inter', 'Helvetica', sans-serif"
          font-size="10" text-anchor="middle" fill="#8888aa" font-weight="500">Git</text>
  </g>
  <!-- C -->
  <g>
    <animateTransform attributeName="transform" type="translate"
      values="0,0;4,5;0,0;-4,-5;0,0" additive="sum"
      dur="3.9s" begin="0.0s" repeatCount="indefinite"
      calcMode="spline" keySplines="0.45,0,0.55,1;0.45,0,0.55,1;0.45,0,0.55,1;0.45,0,0.55,1"/>
    <use href="#icon_c" x="309" y="255" width="50" height="50"/>
    <text x="334" y="319" font-family="'Inter', 'Helvetica', sans-serif"
          font-size="10" text-anchor="middle" fill="#8888aa" font-weight="500">C</text>
  </g>
  <!-- C++ -->
  <g>
    <animateTransform attributeName="transform" type="translate"
      values="0,0;-3,6;0,0;3,-6;0,0" additive="sum"
      dur="4.5s" begin="0.6s" repeatCount="indefinite"
      calcMode="spline" keySplines="0.45,0,0.55,1;0.45,0,0.55,1;0.45,0,0.55,1;0.45,0,0.55,1"/>
    <use href="#icon_cpp" x="385" y="255" width="50" height="50"/>
    <text x="410" y="319" font-family="'Inter', 'Helvetica', sans-serif"
          font-size="10" text-anchor="middle" fill="#8888aa" font-weight="500">C++</text>
  </g>
  <!-- Java -->
  <g>
    <animateTransform attributeName="transform" type="translate"
      values="0,0;5,-4;0,0;-5,4;0,0" additive="sum"
      dur="4.1s" begin="1.2s" repeatCount="indefinite"
      calcMode="spline" keySplines="0.45,0,0.55,1;0.45,0,0.55,1;0.45,0,0.55,1;0.45,0,0.55,1"/>
    <use href="#icon_java" x="461" y="255" width="50" height="50"/>
    <text x="486" y="319" font-family="'Inter', 'Helvetica', sans-serif"
          font-size="10" text-anchor="middle" fill="#8888aa" font-weight="500">Java</text>
  </g>

</svg>